<svg width="269" height="87" viewBox="0 0 269 87" fill="none" xmlns="http://www.w3.org/2000/svg">
<g clip-path="url(#clip0_19_3215)">
<path d="M268.995 19.9766H263.66V61.6517H268.995V19.9766Z" fill="black"/>
<path d="M123.443 61.7025C120.342 61.7025 117.627 61.1661 115.291 60.0898C112.952 59.017 111.116 57.5299 109.784 55.6253C108.448 53.724 107.701 51.5002 107.535 48.9538H113.266C113.564 51.5341 114.625 53.5033 116.454 54.858C118.283 56.216 120.677 56.8916 123.646 56.8916C126.442 56.8916 128.602 56.3043 130.114 55.1296C131.632 53.9549 132.389 52.3116 132.389 50.1931C132.389 48.5057 131.855 47.1103 130.783 46.0001C129.711 44.8899 128.038 44.1056 125.769 43.6439L119.446 42.2043C116.116 41.4778 113.584 40.2182 111.839 38.4358C110.091 36.6465 109.219 34.3854 109.219 31.6387C109.219 29.4251 109.773 27.4661 110.876 25.7584C111.981 24.0574 113.547 22.7265 115.568 21.7657C117.597 20.8083 119.974 20.3262 122.709 20.3262C125.444 20.3262 127.963 20.832 130.07 21.8404C132.176 22.8487 133.863 24.2543 135.131 26.0571C136.399 27.8599 137.166 29.9853 137.43 32.4332H131.699C131.27 30.0192 130.249 28.1927 128.636 26.9501C127.02 25.7074 124.947 25.0895 122.408 25.0895C120.038 25.0895 118.135 25.6361 116.701 26.7294C115.268 27.8192 114.554 29.3097 114.554 31.194C114.554 32.6844 115.055 33.9508 116.062 34.9863C117.066 36.0286 118.703 36.7993 120.975 37.295L127.547 38.7854C130.942 39.5494 133.484 40.8361 135.182 42.6559C136.879 44.4757 137.728 46.8387 137.728 49.7483C137.728 53.3845 136.47 56.2907 133.948 58.4534C131.429 60.6195 127.926 61.7025 123.45 61.7025" fill="black"/>
<path d="M154.724 56.9429C157.294 56.9429 159.336 55.9685 160.847 54.0129C162.365 52.0641 163.122 49.4634 163.122 46.2245C163.122 42.9855 162.365 40.3848 160.847 38.436C159.332 36.4839 157.29 35.5061 154.724 35.5061C152.158 35.5061 150.335 36.2937 148.966 37.8623C147.597 39.4342 146.914 41.4917 146.914 44.038V48.4041C146.914 50.9505 147.597 52.9909 148.966 54.5323C150.335 56.0669 152.253 56.8716 154.724 56.9395M141.582 73.0154V31.3436H146.87V36.2055H147.069C148.784 32.5659 151.813 30.7461 156.158 30.7461C158.629 30.7461 160.786 31.3912 162.632 32.6813C164.478 33.9749 165.908 35.7743 166.933 38.0897C167.951 40.4052 168.461 43.1179 168.461 46.2279C168.461 49.3378 167.951 52.0063 166.933 54.3388C165.908 56.6679 164.478 58.4808 162.632 59.771C160.786 61.0611 158.629 61.7062 156.158 61.7062C151.813 61.7062 148.797 59.9068 147.12 56.2978H146.921V73.0188H141.585L141.582 73.0154Z" fill="black"/>
<path d="M182.671 57.1907C184.219 57.1907 185.609 56.8274 186.846 56.0975C188.08 55.3709 189.061 54.3863 189.784 53.1471C190.508 51.9045 190.87 50.5227 190.87 49.0017V47.81H182.569C180.659 47.81 179.202 48.2174 178.198 49.0254C177.193 49.8369 176.69 50.9708 176.69 52.424C176.69 53.8771 177.234 55.0348 178.319 55.8938C179.408 56.7527 180.858 57.1873 182.667 57.1873M181.582 61.6553C178.651 61.6553 176.27 60.8201 174.445 59.1497C172.615 57.4793 171.699 55.3234 171.699 52.6786C171.699 49.864 172.612 47.6742 174.445 46.1022C176.274 44.5303 178.867 43.746 182.228 43.746H190.873V42.259C190.873 40.0759 190.288 38.3783 189.122 37.1697C187.948 35.9644 186.312 35.3601 184.202 35.3601C182.458 35.3601 181.017 35.7641 179.881 36.5755C178.745 37.387 177.995 38.5345 177.63 40.0216H172.196C172.69 37.1425 174.025 34.878 176.196 33.2245C178.37 31.5711 181.071 30.7461 184.3 30.7461C187.955 30.7461 190.815 31.7375 192.874 33.7236C194.93 35.7064 195.961 38.5006 195.961 42.1062V61.1087H190.92V55.9481H190.724C189.963 57.7 188.763 59.0886 187.117 60.1139C185.47 61.1392 183.624 61.6519 181.582 61.6519" fill="black"/>
<path d="M209.547 61.1083C208.033 61.1083 206.846 60.7043 205.99 59.8928C205.135 59.0814 204.709 57.8693 204.709 56.2499V35.6109H199.668V31.3466H204.76V22.4141H209.994V31.3466H217.06V35.6109H210.041V56.844H217.75V61.1117H209.547V61.1083Z" fill="black"/>
<path d="M222.096 31.3435H227.431V61.1085H222.096V31.3435ZM224.764 26.9434C223.932 26.9434 223.219 26.6447 222.627 26.0471C222.032 25.453 221.734 24.7366 221.734 23.9014C221.734 23.0662 222.032 22.3498 222.627 21.7523C223.219 21.1581 223.932 20.8594 224.764 20.8594C225.595 20.8594 226.309 21.1581 226.904 21.7523C227.496 22.3498 227.793 23.0696 227.793 23.9014C227.793 24.7332 227.496 25.453 226.904 26.0471C226.309 26.6447 225.592 26.9434 224.764 26.9434Z" fill="black"/>
<path d="M244.378 57.7337C245.926 57.7337 247.316 57.3704 248.553 56.6404C249.787 55.9139 250.768 54.9293 251.491 53.6901C252.215 52.4475 252.577 51.0656 252.577 49.5446V48.3529H244.276C242.366 48.3529 240.909 48.7604 239.905 49.5684C238.9 50.3798 238.397 51.5138 238.397 52.9669C238.397 54.42 238.941 55.5812 240.026 56.4367C241.115 57.2957 242.565 57.7303 244.374 57.7303M243.289 62.1983C240.358 62.1983 237.977 61.3631 236.152 59.6927C234.323 58.0223 233.406 55.8663 233.406 53.2215C233.406 50.407 234.319 48.2171 236.152 46.6452C237.981 45.0733 240.574 44.289 243.935 44.289H252.58V42.8019C252.58 40.6189 251.995 38.9213 250.829 37.7126C249.655 36.5074 248.019 35.903 245.909 35.903C244.165 35.903 242.724 36.3071 241.588 37.1185C240.452 37.9299 239.702 39.0775 239.337 40.5645H233.903C234.397 37.6855 235.732 35.4209 237.903 33.7675C240.077 32.1141 242.778 31.2891 246.007 31.2891C249.662 31.2891 252.522 32.2804 254.582 34.2666C256.637 36.2493 257.668 39.0435 257.668 42.6491V61.6516H252.627V56.4911H252.431C251.67 58.2429 250.47 59.6315 248.824 60.6569C247.177 61.6822 245.331 62.1949 243.289 62.1949" fill="black"/>
<path d="M38.5553 11.7041C35.9451 14.3251 35.9451 18.5792 38.5553 21.2036C41.1654 23.8246 45.4018 23.8246 48.0153 21.2036C50.6255 18.5792 50.6255 14.3285 48.0153 11.7041C45.4018 9.08302 41.1688 9.08302 38.5553 11.7041Z" fill="black"/>
<path d="M11.5452 38.8695C9.01619 41.4091 9.01619 45.5273 11.5452 48.0703C14.0742 50.6098 18.1753 50.6098 20.7077 48.0703C23.2367 45.5273 23.2367 41.4091 20.7077 38.8695C18.1753 36.33 14.0742 36.33 11.5452 38.8695Z" fill="black"/>
<path d="M27.4928 0.914484C26.2993 2.11296 26.2993 4.05158 27.4928 5.25005C28.6863 6.44853 30.6168 6.44853 31.8103 5.25005C33.0038 4.05158 33.0038 2.11296 31.8103 0.914484C30.6168 -0.283995 28.6863 -0.283995 27.4928 0.914484Z" fill="black"/>
<path d="M3.00267 27.082C1.48459 27.082 0.253906 28.3179 0.253906 29.8423C0.253906 31.3667 1.48459 32.5991 3.00267 32.5991C4.52074 32.5991 5.75143 31.3633 5.75143 29.8423C5.75143 28.3213 4.52074 27.082 3.00267 27.082Z" fill="black"/>
<path d="M81.3561 55.0043C80.1626 56.2028 80.1626 58.1414 81.3561 59.3399C82.5496 60.5384 84.4801 60.5384 85.6736 59.3399C86.8671 58.1414 86.8671 56.2028 85.6736 55.0043C84.4801 53.8058 82.5496 53.8058 81.3561 55.0043Z" fill="black"/>
<path d="M54.7115 81.766C53.518 82.9645 53.518 84.9031 54.7115 86.1016C55.905 87.3001 57.8356 87.3001 59.0291 86.1016C60.2226 84.9031 60.2226 82.9645 59.0291 81.766C57.8356 80.5676 55.905 80.5676 54.7115 81.766Z" fill="black"/>
<path d="M27.9459 81.6879C26.7524 82.8864 26.7524 84.825 27.9459 86.0235C29.1394 87.222 31.07 87.222 32.2635 86.0235C33.457 84.825 33.457 82.8864 32.2635 81.6879C31.07 80.4894 29.1394 80.4894 27.9459 81.6879Z" fill="black"/>
<path d="M81.3482 28.059C80.1548 29.2575 80.1548 31.1961 81.3482 32.3946C82.5417 33.5931 84.4723 33.5931 85.6658 32.3946C86.8593 31.1961 86.8593 29.2575 85.6658 28.059C84.4723 26.8605 82.5417 26.8605 81.3482 28.059Z" fill="black"/>
<path d="M0.895123 54.5258C-0.298374 55.7243 -0.298374 57.6629 0.895123 58.8614C2.08862 60.0599 4.01918 60.0599 5.21267 58.8614C6.40617 57.6629 6.40617 55.7243 5.21267 54.5258C4.01918 53.3273 2.08862 53.3273 0.895123 54.5258Z" fill="black"/>
<path d="M54.3014 0.898859C53.1079 2.09734 53.1079 4.03595 54.3014 5.23443C55.4949 6.43291 57.4254 6.43291 58.6189 5.23443C59.8124 4.03595 59.8124 2.09734 58.6189 0.898859C57.4254 -0.29962 55.4949 -0.29962 54.3014 0.898859Z" fill="black"/>
<path d="M36.3874 50.3259C40.279 54.0945 46.5812 54.0945 50.4693 50.3259C54.3609 46.5573 54.3609 40.4461 50.4693 36.6741C46.5812 32.9055 40.2756 32.9055 36.3874 36.6741C32.4959 40.4427 32.4959 46.5539 36.3874 50.3259Z" fill="black"/>
<path d="M65.6253 65.5361C63.0152 68.1571 63.0152 72.4112 65.6253 75.0356C68.2355 77.6567 72.4719 77.6567 75.0854 75.0356C77.6955 72.4112 77.6955 68.1605 75.0854 65.5361C72.4719 62.9151 68.2389 62.9151 65.6253 65.5361Z" fill="black"/>
<path d="M11.856 65.5361C9.2459 68.1571 9.2459 72.4112 11.856 75.0356C14.4662 77.6567 18.7026 77.6567 21.3161 75.0356C23.9263 72.4112 23.9263 68.1605 21.3161 65.5361C18.7026 62.9151 14.4696 62.9151 11.856 65.5361Z" fill="black"/>
<path d="M11.5123 11.7041C8.90215 14.3251 8.90215 18.5792 11.5123 21.2036C14.1224 23.8246 18.3588 23.8246 20.9724 21.2036C23.5825 18.5792 23.5825 14.3285 20.9724 11.7041C18.3588 9.08302 14.1258 9.08302 11.5123 11.7041Z" fill="black"/>
<path d="M65.4615 11.7041C62.8514 14.3251 62.8514 18.5792 65.4615 21.2036C68.0717 23.8246 72.3081 23.8246 74.9216 21.2036C77.5317 18.5792 77.5317 14.3285 74.9216 11.7041C72.3081 9.08302 68.075 9.08302 65.4615 11.7041Z" fill="black"/>
<path d="M24.5157 24.418C21.4323 27.5143 21.4323 32.5357 24.5157 35.6321C27.5992 38.7284 32.5997 38.7284 35.6832 35.6321C38.7667 32.5357 38.7667 27.5143 35.6832 24.418C32.5997 21.3216 27.5992 21.3216 24.5157 24.418Z" fill="black"/>
<path d="M51.1759 35.677C54.2594 38.7733 59.2599 38.7733 62.3434 35.677C65.4269 32.5806 65.4269 27.5592 62.3434 24.4629C59.2599 21.3665 54.2594 21.3665 51.1759 24.4629C48.0924 27.5592 48.0924 32.5806 51.1759 35.677Z" fill="black"/>
<path d="M24.4689 62.4699C27.5523 65.5663 32.5529 65.5663 35.6363 62.4699C38.7198 59.3736 38.7198 54.3522 35.6363 51.2559C32.5529 48.1595 27.5523 48.1595 24.4689 51.2559C21.3854 54.3522 21.3854 59.3736 24.4689 62.4699Z" fill="black"/>
<path d="M51.2228 51.2559C48.1393 54.3522 48.1393 59.3736 51.2228 62.4699C54.3063 65.5663 59.3068 65.5663 62.3902 62.4699C65.4737 59.3736 65.4737 54.3522 62.3902 51.2559C59.3068 48.1595 54.3063 48.1595 51.2228 51.2559Z" fill="black"/>
<path d="M65.4124 38.8695C62.8834 41.4091 62.8834 45.5273 65.4124 48.0703C67.9414 50.6098 72.0425 50.6098 74.5749 48.0703C77.1039 45.5273 77.1039 41.4091 74.5749 38.8695C72.0425 36.33 67.9414 36.33 65.4124 38.8695Z" fill="black"/>
<path d="M38.5553 65.5361C35.9451 68.1571 35.9451 72.4112 38.5553 75.0356C41.1654 77.6567 45.4018 77.6567 48.0153 75.0356C50.6255 72.4112 50.6255 68.1605 48.0153 65.5361C45.4018 62.9151 41.1688 62.9151 38.5553 65.5361Z" fill="black"/>
</g>
<defs>
<clipPath id="clip0_19_3215">
<rect width="269" height="87" fill="white"/>
</clipPath>
</defs>
</svg>
