<svg width="11" height="13" viewBox="0 0 11 13" fill="none" xmlns="http://www.w3.org/2000/svg">
<path d="M1.5625 12H9.4375C9.8125 12 10 12.1667 10 12.5C10 12.8333 9.8125 13 9.4375 13H1.5625C1.1875 13 1 12.8333 1 12.5C1 12.1667 1.1875 12 1.5625 12Z" fill="#8F8F8F"/>
<path d="M10 5.10714C10 3.99892 9.52589 2.93608 8.68198 2.15245C7.83807 1.36881 6.69347 0.928571 5.5 0.928571C4.30653 0.928571 3.16193 1.36881 2.31802 2.15245C1.47411 2.93608 1 3.99892 1 5.10714C1 6.82129 2.477 9.05543 5.5 11.7316C8.523 9.05543 10 6.82129 10 5.10714ZM5.5 13C1.833 9.90507 0 7.2735 0 5.10714C0 3.75264 0.579463 2.45362 1.61091 1.49585C2.64236 0.538073 4.04131 0 5.5 0C6.95869 0 8.35764 0.538073 9.38909 1.49585C10.4205 2.45362 11 3.75264 11 5.10714C11 7.2735 9.167 9.90507 5.5 13Z" fill="#8F8F8F"/>
<path d="M5.5 7C5.89782 7 6.27936 6.84196 6.56066 6.56066C6.84196 6.27936 7 5.89782 7 5.5C7 5.10218 6.84196 4.72064 6.56066 4.43934C6.27936 4.15804 5.89782 4 5.5 4C5.10218 4 4.72064 4.15804 4.43934 4.43934C4.15804 4.72064 4 5.10218 4 5.5C4 5.89782 4.15804 6.27936 4.43934 6.56066C4.72064 6.84196 5.10218 7 5.5 7ZM5.5 8C4.83696 8 4.20107 7.73661 3.73223 7.26777C3.26339 6.79893 3 6.16304 3 5.5C3 4.83696 3.26339 4.20107 3.73223 3.73223C4.20107 3.26339 4.83696 3 5.5 3C6.16304 3 6.79893 3.26339 7.26777 3.73223C7.73661 4.20107 8 4.83696 8 5.5C8 6.16304 7.73661 6.79893 7.26777 7.26777C6.79893 7.73661 6.16304 8 5.5 8Z" fill="#8F8F8F"/>
</svg>
