<svg width="192" height="62" viewBox="0 0 192 62" fill="none" xmlns="http://www.w3.org/2000/svg">
<g clip-path="url(#clip0_19_544)">
<path d="M191.997 14.2364H188.189V43.9359H191.997V14.2364Z" fill="black"/>
<path d="M88.109 43.9722C85.8961 43.9722 83.9583 43.5899 82.2908 42.8229C80.6208 42.0584 79.3105 40.9986 78.3597 39.6413C77.4064 38.2864 76.8731 36.7016 76.7549 34.8869H80.8453C81.0576 36.7258 81.8154 38.1291 83.1209 39.0945C84.4265 40.0623 86.135 40.5438 88.2538 40.5438C90.2496 40.5438 91.7916 40.1252 92.8703 39.288C93.9538 38.4509 94.4944 37.2798 94.4944 35.7701C94.4944 34.5676 94.1131 33.5732 93.3481 32.782C92.5831 31.9908 91.3886 31.4319 89.7693 31.1028L85.2566 30.077C82.8796 29.5592 81.0721 28.6615 79.8269 27.3913C78.5793 26.1162 77.9567 24.5048 77.9567 22.5474C77.9567 20.9699 78.3524 19.5739 79.1391 18.3568C79.9283 17.1447 81.0456 16.1962 82.4887 15.5115C83.9366 14.8292 85.6331 14.4856 87.5854 14.4856C89.5377 14.4856 91.3355 14.8461 92.8389 15.5647C94.3424 16.2833 95.5466 17.285 96.4515 18.5698C97.3565 19.8545 97.9043 21.3691 98.0925 23.1136H94.0021C93.6956 21.3933 92.9668 20.0916 91.8157 19.2061C90.6622 18.3205 89.1829 17.8802 87.3706 17.8802C85.6789 17.8802 84.3203 18.2697 83.2971 19.0488C82.2739 19.8255 81.7647 20.8876 81.7647 22.2305C81.7647 23.2926 82.1219 24.1951 82.841 24.9331C83.5577 25.6759 84.7257 26.2251 86.3474 26.5783L91.0387 27.6405C93.4616 28.1849 95.2763 29.1019 96.4877 30.3988C97.6992 31.6956 98.3049 33.3796 98.3049 35.4531C98.3049 38.0444 97.4072 40.1155 95.6069 41.6567C93.8091 43.2004 91.309 43.9722 88.1139 43.9722" fill="black"/>
<path d="M110.436 40.5801C112.27 40.5801 113.727 39.8857 114.806 38.492C115.89 37.1032 116.43 35.2499 116.43 32.9417C116.43 30.6334 115.89 28.7801 114.806 27.3913C113.725 26.0001 112.267 25.3033 110.436 25.3033C108.604 25.3033 107.303 25.8646 106.326 26.9824C105.349 28.1026 104.861 29.5689 104.861 31.3835V34.495C104.861 36.3096 105.349 37.7637 106.326 38.8622C107.303 39.9558 108.672 40.5293 110.436 40.5776M101.056 52.034V22.3369H104.83V25.8017H104.972C106.196 23.208 108.358 21.9111 111.459 21.9111C113.223 21.9111 114.763 22.3708 116.08 23.2902C117.398 24.2121 118.419 25.4944 119.15 27.1445C119.876 28.7946 120.241 30.7278 120.241 32.9441C120.241 35.1604 119.876 37.0621 119.15 38.7243C118.419 40.3841 117.398 41.6761 116.08 42.5955C114.763 43.5149 113.223 43.9746 111.459 43.9746C108.358 43.9746 106.205 42.6923 105.009 40.1204H104.866V52.0365H101.058L101.056 52.034Z" fill="black"/>
<path d="M130.384 40.7567C131.489 40.7567 132.481 40.4978 133.364 39.9776C134.245 39.4598 134.945 38.7582 135.461 37.875C135.977 36.9895 136.236 36.0048 136.236 34.9208V34.0716H130.311C128.948 34.0716 127.908 34.3619 127.191 34.9378C126.474 35.516 126.115 36.3241 126.115 37.3597C126.115 38.3952 126.503 39.2203 127.278 39.8324C128.055 40.4446 129.09 40.7543 130.381 40.7543M129.607 43.9383C127.514 43.9383 125.815 43.3431 124.512 42.1527C123.207 40.9623 122.553 39.426 122.553 37.5412C122.553 35.5354 123.204 33.9748 124.512 32.8546C125.818 31.7343 127.669 31.1754 130.067 31.1754H136.238V30.1157C136.238 28.5599 135.821 27.3502 134.988 26.4888C134.151 25.6299 132.983 25.1992 131.477 25.1992C130.232 25.1992 129.204 25.4871 128.393 26.0654C127.582 26.6437 127.046 27.4615 126.786 28.5212H122.907C123.26 26.4695 124.213 24.8556 125.762 23.6773C127.314 22.499 129.242 21.9111 131.547 21.9111C134.155 21.9111 136.197 22.6176 137.667 24.033C139.134 25.446 139.87 27.4373 139.87 30.0068V43.5488H136.272V39.8711H136.132C135.589 41.1196 134.732 42.1092 133.557 42.8399C132.382 43.5706 131.064 43.9359 129.607 43.9359" fill="black"/>
<path d="M149.566 43.5488C148.485 43.5488 147.638 43.2609 147.027 42.6826C146.417 42.1044 146.113 41.2406 146.113 40.0865V25.3783H142.515V22.3394H146.149V15.9736H149.885V22.3394H154.928V25.3783H149.918V40.5099H155.421V43.5512H149.566V43.5488Z" fill="black"/>
<path d="M158.524 22.3369H162.332V43.5488H158.524V22.3369ZM160.428 19.2012C159.834 19.2012 159.325 18.9883 158.903 18.5625C158.478 18.1391 158.266 17.6286 158.266 17.0334C158.266 16.4382 158.478 15.9276 158.903 15.5018C159.325 15.0784 159.834 14.8655 160.428 14.8655C161.022 14.8655 161.531 15.0784 161.955 15.5018C162.378 15.9276 162.59 16.4406 162.59 17.0334C162.59 17.6261 162.378 18.1391 161.955 18.5625C161.531 18.9883 161.019 19.2012 160.428 19.2012Z" fill="black"/>
<path d="M174.425 41.1438C175.53 41.1438 176.522 40.8849 177.405 40.3647C178.286 39.8469 178.986 39.1453 179.502 38.2622C180.018 37.3766 180.277 36.3919 180.277 35.3079V34.4587H174.352C172.989 34.4587 171.949 34.749 171.232 35.3249C170.515 35.9031 170.156 36.7113 170.156 37.7468C170.156 38.7824 170.544 39.6098 171.319 40.2195C172.096 40.8317 173.131 41.1414 174.422 41.1414M173.648 44.3255C171.555 44.3255 169.856 43.7303 168.553 42.5399C167.248 41.3495 166.594 39.8131 166.594 37.9283C166.594 35.9225 167.245 34.3619 168.553 33.2417C169.859 32.1214 171.71 31.5625 174.108 31.5625H180.279V30.5028C180.279 28.947 179.862 27.7373 179.029 26.8759C178.192 26.017 177.024 25.5863 175.518 25.5863C174.273 25.5863 173.245 25.8743 172.434 26.4525C171.623 27.0308 171.087 27.8486 170.827 28.9083H166.948C167.301 26.8566 168.254 25.2428 169.803 24.0645C171.355 22.8862 173.283 22.2982 175.588 22.2982C178.196 22.2982 180.238 23.0047 181.708 24.4201C183.175 25.8331 183.911 27.8244 183.911 30.3939V43.9359H180.313V40.2583H180.173C179.63 41.5067 178.773 42.4963 177.598 43.227C176.423 43.9577 175.105 44.323 173.648 44.323" fill="black"/>
<path d="M27.5203 8.34006C25.6573 10.2079 25.6573 13.2396 27.5203 15.1099C29.3833 16.9777 32.4071 16.9777 34.2725 15.1099C36.1355 13.2396 36.1355 10.2103 34.2725 8.34006C32.4071 6.4722 29.3857 6.4722 27.5203 8.34006Z" fill="black"/>
<path d="M8.23858 27.701C6.43349 29.5108 6.43349 32.4457 8.23858 34.2579C10.0437 36.0677 12.9709 36.0677 14.7784 34.2579C16.5835 32.4457 16.5835 29.5108 14.7784 27.701C12.9709 25.8912 10.0437 25.8912 8.23858 27.701Z" fill="black"/>
<path d="M19.6223 0.65085C18.7704 1.50494 18.7704 2.88648 19.6223 3.74057C20.4742 4.59466 21.8521 4.59466 22.704 3.74057C23.5558 2.88648 23.5558 1.50494 22.704 0.65085C21.8521 -0.203238 20.4742 -0.203238 19.6223 0.65085Z" fill="black"/>
<path d="M2.14261 19.3004C1.05907 19.3004 0.180664 20.1811 0.180664 21.2675C0.180664 22.3539 1.05907 23.2322 2.14261 23.2322C3.22614 23.2322 4.10455 22.3515 4.10455 21.2675C4.10455 20.1836 3.22614 19.3004 2.14261 19.3004Z" fill="black"/>
<path d="M58.0696 39.1985C57.2177 40.0526 57.2177 41.4341 58.0696 42.2882C58.9214 43.1423 60.2994 43.1423 61.1512 42.2882C62.0031 41.4341 62.0031 40.0526 61.1512 39.1985C60.2994 38.3444 58.9214 38.3444 58.0696 39.1985Z" fill="black"/>
<path d="M39.051 58.2691C38.1991 59.1232 38.1991 60.5047 39.051 61.3588C39.9029 62.2129 41.2808 62.2129 42.1327 61.3588C42.9845 60.5047 42.9845 59.1232 42.1327 58.2691C41.2808 57.415 39.9029 57.415 39.051 58.2691Z" fill="black"/>
<path d="M19.9455 58.2135C19.0937 59.0675 19.0937 60.4491 19.9455 61.3032C20.7974 62.1573 22.1753 62.1573 23.0272 61.3032C23.8791 60.4491 23.8791 59.0675 23.0272 58.2135C22.1753 57.3594 20.7974 57.3594 19.9455 58.2135Z" fill="black"/>
<path d="M58.0617 19.9973C57.2099 20.8514 57.2099 22.2329 58.0617 23.087C58.9136 23.9411 60.2916 23.9411 61.1434 23.087C61.9953 22.2329 61.9953 20.8514 61.1434 19.9973C60.2916 19.1432 58.9136 19.1432 58.0617 19.9973Z" fill="black"/>
<path d="M0.639875 38.8574C-0.211989 39.7115 -0.211989 41.093 0.639875 41.9471C1.49174 42.8012 2.86968 42.8012 3.72155 41.9471C4.57341 41.093 4.57341 39.7115 3.72155 38.8574C2.86968 38.0033 1.49174 38.0033 0.639875 38.8574Z" fill="black"/>
<path d="M38.7561 0.641169C37.9042 1.49526 37.9042 2.8768 38.7561 3.73089C39.6079 4.58497 40.9859 4.58497 41.8378 3.73089C42.6896 2.8768 42.6896 1.49526 41.8378 0.641169C40.9859 -0.212919 39.6079 -0.212919 38.7561 0.641169Z" fill="black"/>
<path d="M25.9709 35.8644C28.7485 38.5501 33.2467 38.5501 36.0219 35.8644C38.7995 33.1788 38.7995 28.8236 36.0219 26.1356C33.2467 23.4499 28.7461 23.4499 25.9709 26.1356C23.1933 28.8212 23.1933 33.1763 25.9709 35.8644Z" fill="black"/>
<path d="M46.8406 46.7038C44.9776 48.5717 44.9776 51.6034 46.8406 53.4736C48.7036 55.3415 51.7274 55.3415 53.5928 53.4736C55.4558 51.6034 55.4558 48.5741 53.5928 46.7038C51.7274 44.836 48.706 44.836 46.8406 46.7038Z" fill="black"/>
<path d="M8.46073 46.7038C6.59773 48.5717 6.59773 51.6034 8.46073 53.4736C10.3237 55.3415 13.3475 55.3415 15.2129 53.4736C17.0759 51.6034 17.0759 48.5741 15.2129 46.7038C13.3475 44.836 10.3261 44.836 8.46073 46.7038Z" fill="black"/>
<path d="M8.21659 8.34006C6.35359 10.2079 6.35359 13.2396 8.21659 15.1099C10.0796 16.9777 13.1033 16.9777 14.9688 15.1099C16.8318 13.2396 16.8318 10.2103 14.9688 8.34006C13.1033 6.4722 10.082 6.4722 8.21659 8.34006Z" fill="black"/>
<path d="M46.7224 8.34006C44.8594 10.2079 44.8594 13.2396 46.7224 15.1099C48.5854 16.9777 51.6092 16.9777 53.4746 15.1099C55.3376 13.2396 55.3376 10.2103 53.4746 8.34006C51.6092 6.4722 48.5879 6.4722 46.7224 8.34006Z" fill="black"/>
<path d="M17.4983 17.4011C15.2974 19.6077 15.2974 23.1862 17.4983 25.3928C19.6991 27.5994 23.2683 27.5994 25.4691 25.3928C27.67 23.1862 27.67 19.6077 25.4691 17.4011C23.2683 15.1945 19.6991 15.1945 17.4983 17.4011Z" fill="black"/>
<path d="M36.5266 25.4242C38.7275 27.6308 42.2966 27.6308 44.4975 25.4242C46.6983 23.2176 46.6983 19.6392 44.4975 17.4326C42.2966 15.226 38.7275 15.226 36.5266 17.4326C34.3258 19.6392 34.3258 23.2176 36.5266 25.4242Z" fill="black"/>
<path d="M17.4641 44.519C19.665 46.7256 23.2341 46.7256 25.435 44.519C27.6358 42.3124 27.6358 38.734 25.435 36.5274C23.2341 34.3208 19.665 34.3208 17.4641 36.5274C15.2633 38.734 15.2633 42.3124 17.4641 44.519Z" fill="black"/>
<path d="M36.5598 36.5274C34.359 38.734 34.359 42.3124 36.5598 44.519C38.7607 46.7256 42.3298 46.7256 44.5307 44.519C46.7315 42.3124 46.7315 38.734 44.5307 36.5274C42.3298 34.3208 38.7607 34.3208 36.5598 36.5274Z" fill="black"/>
<path d="M46.6888 27.701C44.8837 29.5108 44.8837 32.4457 46.6888 34.2579C48.4939 36.0677 51.4211 36.0677 53.2286 34.2579C55.0337 32.4457 55.0337 29.5108 53.2286 27.701C51.4211 25.8912 48.4939 25.8912 46.6888 27.701Z" fill="black"/>
<path d="M27.5203 46.7038C25.6573 48.5717 25.6573 51.6034 27.5203 53.4736C29.3833 55.3415 32.4071 55.3415 34.2725 53.4736C36.1355 51.6034 36.1355 48.5741 34.2725 46.7038C32.4071 44.836 29.3857 44.836 27.5203 46.7038Z" fill="black"/>
</g>
<defs>
<clipPath id="clip0_19_544">
<rect width="192" height="62" fill="white"/>
</clipPath>
</defs>
</svg>
