<svg width="56" height="29" viewBox="0 0 56 29" fill="none" xmlns="http://www.w3.org/2000/svg">
<path d="M34.8214 12.5025C34.671 12.3566 34.5958 11.9026 34.5958 11.1405V4.00037C34.5958 3.01124 34.7462 2.30859 35.0524 1.8924C35.3531 1.4708 35.9493 1.1465 36.8356 0.919485C37.1901 0.827599 37.3727 0.681662 37.3727 0.470864C37.3727 0.195206 37.1793 0.0600794 36.798 0.0600794C36.5993 0.0600794 36.32 0.0871047 35.9655 0.141155C35.1437 0.249257 34.2682 0.297902 33.3282 0.297902C31.9424 0.297902 30.7339 0.238447 29.7027 0.119535C29.1602 0.0546743 28.7627 0.0114338 28.5156 0.000623661C28.1719 -0.0101865 28 0.119535 28 0.389788C28 0.622206 28.1934 0.768143 28.5747 0.816788C29.6973 0.989751 30.4761 1.33567 30.9112 1.85456C31.3462 2.37345 31.5665 3.21664 31.5665 4.37332V21.5182C31.5665 23.3829 31.459 24.691 31.2496 25.4369C31.0401 26.1828 30.6426 26.6206 30.0625 26.7557L29.0742 26.9935C28.7305 27.0746 28.5586 27.2259 28.5586 27.4584C28.5586 27.707 28.7251 27.8313 29.0528 27.8313C29.1978 27.8313 29.6114 27.7989 30.2989 27.7448C30.7984 27.7016 31.2173 27.68 31.545 27.68L32.8502 27.6367L34.5152 27.6529C35.7452 27.6529 36.5348 27.6854 36.8947 27.7448C37.3727 27.8043 37.695 27.8367 37.8669 27.8367C38.2643 27.8367 38.4523 27.7016 38.4416 27.4259C38.4308 27.1395 38.1784 26.9719 37.6896 26.9178C36.5026 26.7827 35.6862 26.4368 35.2511 25.8801C34.816 25.3234 34.5958 24.3504 34.5958 22.9667V15.6483C34.5958 15.0213 34.6871 14.6321 34.8751 14.4808C35.0631 14.3295 35.5304 14.2538 36.2824 14.2538H47.9539C48.6307 14.2538 49.0228 14.3078 49.141 14.4159C49.2591 14.524 49.3182 14.8916 49.3182 15.5132V22.8424L49.2967 23.6208C49.2967 25.6585 48.6038 26.7989 47.2181 27.0368C46.783 27.1016 46.5574 27.253 46.5413 27.4854C46.5306 27.761 46.6863 27.8854 47.014 27.8745C47.1053 27.8745 47.5618 27.8421 48.3836 27.7773C48.7811 27.7394 49.098 27.7178 49.3343 27.7178L50.8221 27.6746L52.2885 27.6962C53.2929 27.6962 53.9535 27.7232 54.2704 27.7773C54.6948 27.8421 55.0331 27.8745 55.3017 27.8745C55.6992 27.8745 55.8818 27.7178 55.8549 27.4043C55.8442 27.1989 55.6293 27.0692 55.2211 27.0151C54.0986 26.8962 53.3359 26.5611 52.9438 26.0152C52.5463 25.4693 52.3475 24.4856 52.3475 23.064V3.78957C52.3475 3.12475 52.4872 2.5356 52.7611 2.02752C53.0404 1.51404 53.3788 1.22217 53.7924 1.14109L54.6035 0.962725C54.9204 0.897864 55.0815 0.757333 55.0815 0.55194C55.0815 0.292497 54.9204 0.162776 54.6035 0.162776C54.4692 0.162776 54.2275 0.189801 53.873 0.243852C53.3036 0.324928 52.3153 0.362763 50.9027 0.362763C49.9252 0.362763 49.0013 0.314117 48.1312 0.222231C47.5081 0.157371 47.0623 0.119535 46.783 0.119535C46.4661 0.119535 46.2996 0.227636 46.2889 0.449244C46.2781 0.681662 46.4661 0.838409 46.8636 0.91408C47.8035 1.13028 48.4427 1.51945 48.7972 2.09238C49.1463 2.66532 49.3236 3.63823 49.3236 5.01112V11.8323C49.3236 12.2053 49.243 12.4485 49.0873 12.5512C48.9315 12.6593 48.5609 12.7133 47.9754 12.7133H36.2877C35.4659 12.7133 34.9825 12.6377 34.8321 12.4917" fill="white"/>
<path d="M24.2133 2.09176C24.1059 2.09176 23.9071 2.19986 23.6171 2.41066C23.4828 2.51876 23.3861 2.5674 23.3217 2.5674L22.9833 2.44849L22.6664 2.30796L21.8768 1.89177C19.5404 0.626987 16.9783 0 14.1907 0C10.1193 0 6.74083 1.37289 4.0445 4.11325C1.34817 6.85903 0 10.302 0 14.4477C0 18.5934 1.29983 21.9337 3.90485 24.4687C6.50987 27.0037 9.93668 28.2739 14.1907 28.2739C17.8645 28.2739 21.2269 27.2956 24.2777 25.3443C24.8471 24.9714 25.1586 24.6147 25.2069 24.2687L25.2875 23.9066L25.7441 21.4635L25.8246 21.0203L25.8461 20.7987C25.8461 20.5338 25.7387 20.4041 25.5292 20.4203C25.3412 20.4311 25.078 20.7933 24.7343 21.5013C23.9931 23.0202 22.6664 24.312 20.7489 25.3822C18.8314 26.447 16.8816 26.9821 14.8997 26.9821C11.4997 26.9821 8.7228 25.6632 6.55821 23.031C4.399 20.3933 3.31402 16.9989 3.31402 12.8478C3.31402 9.23725 4.2862 6.38878 6.23057 4.30784C8.17494 2.22689 10.8337 1.18371 14.2014 1.18371C18.4339 1.18371 21.7855 3.35654 24.2562 7.70762C24.5731 8.28056 24.8095 8.55622 24.9706 8.5454C25.0995 8.52919 25.2016 8.46433 25.266 8.34542L25.3251 8.14543L25.266 7.64816L24.6322 2.86468C24.5678 2.36201 24.4281 2.10797 24.2133 2.10797" fill="white"/>
</svg>
