<svg width="8" height="5" viewBox="0 0 8 5" fill="none" xmlns="http://www.w3.org/2000/svg">
<mask id="path-1-inside-1_1_1122" fill="white">
<path d="M8 0.64133C8 0.804632 7.94278 0.96793 7.82834 1.09263L4.41417 4.81295C4.30518 4.93172 4.15531 5 4 5C3.84469 5 3.69482 4.93172 3.58583 4.81295L0.171662 1.09263C-0.0572207 0.843227 -0.0572207 0.436461 0.171662 0.187055C0.400545 -0.0623516 0.773842 -0.0623516 1.00272 0.187055L4 3.45309L6.99728 0.187055C7.22616 -0.0623516 7.59945 -0.0623516 7.82834 0.187055C7.94278 0.311758 8 0.475056 8 0.638358"/>
</mask>
<path d="M8 0.64133C8 0.804632 7.94278 0.96793 7.82834 1.09263L4.41417 4.81295C4.30518 4.93172 4.15531 5 4 5C3.84469 5 3.69482 4.93172 3.58583 4.81295L0.171662 1.09263C-0.0572207 0.843227 -0.0572207 0.436461 0.171662 0.187055C0.400545 -0.0623516 0.773842 -0.0623516 1.00272 0.187055L4 3.45309L6.99728 0.187055C7.22616 -0.0623516 7.59945 -0.0623516 7.82834 0.187055C7.94278 0.311758 8 0.475056 8 0.638358" fill="#1E1E1E"/>
<path d="M7.82834 1.09263L7.09157 0.416491L7.09157 0.416492L7.82834 1.09263ZM4.41417 4.81295L5.15094 5.4891L5.15094 5.48909L4.41417 4.81295ZM3.58583 4.81295L2.84906 5.48909L2.84906 5.4891L3.58583 4.81295ZM0.171662 1.09263L0.908434 0.416492L0.908433 0.416491L0.171662 1.09263ZM1.00272 0.187055L0.265954 0.863197L1.00272 0.187055ZM4 3.45309L3.26323 4.12923L4 4.93207L4.73677 4.12923L4 3.45309ZM6.99728 0.187055L6.2605 -0.489088L6.99728 0.187055ZM8 0.64133L7 0.64133C7 0.575763 7.0227 0.49153 7.09157 0.416491L7.82834 1.09263L8.56511 1.76878C8.86286 1.44433 9 1.0335 9 0.64133L8 0.64133ZM7.82834 1.09263L7.09157 0.416492L3.6774 4.13681L4.41417 4.81295L5.15094 5.48909L8.56511 1.76878L7.82834 1.09263ZM4.41417 4.81295L3.6774 4.13681C3.74689 4.06109 3.85946 4 4 4L4 5V6C4.45116 6 4.86347 5.80235 5.15094 5.4891L4.41417 4.81295ZM4 5L4 4C4.14054 4 4.25311 4.06109 4.3226 4.13681L3.58583 4.81295L2.84906 5.4891C3.13653 5.80235 3.54884 6 4 6V5ZM3.58583 4.81295L4.3226 4.13681L0.908434 0.416492L0.171662 1.09263L-0.56511 1.76878L2.84906 5.48909L3.58583 4.81295ZM0.171662 1.09263L0.908433 0.416491C0.978397 0.492729 1 0.576779 1 0.639844C1 0.70291 0.978397 0.786959 0.908433 0.863197L0.171662 0.187055L-0.565109 -0.489088C-1.14496 0.142762 -1.14496 1.13693 -0.565109 1.76878L0.171662 1.09263ZM0.171662 0.187055L0.908433 0.863197C0.834327 0.943948 0.718006 1 0.587193 1C0.456381 1 0.34006 0.943948 0.265954 0.863197L1.00272 0.187055L1.7395 -0.489088C1.11434 -1.1703 0.0600507 -1.1703 -0.565109 -0.489088L0.171662 0.187055ZM1.00272 0.187055L0.265954 0.863197L3.26323 4.12923L4 3.45309L4.73677 2.77695L1.7395 -0.489088L1.00272 0.187055ZM4 3.45309L4.73677 4.12923L7.73405 0.863197L6.99728 0.187055L6.2605 -0.489088L3.26323 2.77695L4 3.45309ZM6.99728 0.187055L7.73405 0.863197C7.65994 0.943948 7.54362 1 7.41281 1C7.28199 1 7.16567 0.943948 7.09157 0.863197L7.82834 0.187055L8.56511 -0.489088C7.93995 -1.1703 6.88566 -1.1703 6.2605 -0.489088L6.99728 0.187055ZM7.82834 0.187055L7.09157 0.863197C7.0227 0.788158 7 0.703926 7 0.638358L8 0.638358L9 0.638358C9 0.246187 8.86285 -0.164643 8.56511 -0.489088L7.82834 0.187055Z" fill="#1E1E1E" mask="url(#path-1-inside-1_1_1122)"/>
</svg>
