<svg width="54" height="42" viewBox="0 0 54 42" fill="none" xmlns="http://www.w3.org/2000/svg">
<path d="M26.6426 5.9624C26.985 5.61996 27.5413 5.62005 27.8838 5.9624C28.2263 6.30489 28.2263 6.86113 27.8838 7.20361L24.5479 10.5396C24.3766 10.7091 24.1522 10.7954 23.9277 10.7954C23.7034 10.7954 23.4782 10.7092 23.3076 10.5386C22.9653 10.1961 22.9652 9.6398 23.3076 9.29736L26.6426 5.9624Z" fill="#E0E0E0" stroke="#E0E0E0" stroke-width="0.5"/>
<path d="M38.0371 0.25C41.1219 0.25 43.8047 2.17395 44.8008 5.06738L44.8916 5.35059L44.8945 5.35938L47.1533 14.0547C48.8723 13.3375 50.3805 12.5356 51.6201 11.6562L51.6953 11.6084C52.0823 11.3884 52.5824 11.4925 52.8447 11.8652C53.1232 12.2597 53.0318 12.8078 52.6348 13.0889C51.6822 13.7636 50.591 14.3928 49.3848 14.9746C51.7962 16.2056 53.0029 18.5513 53.0029 21.2188V26.2412C53.0029 29.4463 50.8822 32.1575 47.9746 33.0654C47.9773 33.0923 47.9805 33.1196 47.9805 33.1475V34.8691C47.9805 38.205 45.3391 40.9316 42.0791 40.9316C38.8193 40.9314 36.1787 38.2048 36.1787 34.8691V33.3975H17.0771V34.8691C17.0771 38.2048 14.4366 40.9314 11.1768 40.9316C7.91675 40.9316 5.2754 38.205 5.27539 34.8691V33.1475C5.27539 33.1193 5.27755 33.0916 5.28027 33.0645C2.37335 32.1551 0.25293 29.446 0.25293 26.2412V21.2188C0.25293 18.4754 1.52365 16.0629 3.64844 14.8623C2.53088 14.3112 1.51218 13.7195 0.619141 13.0859C0.223946 12.806 0.131668 12.2569 0.412109 11.8623C0.693074 11.4672 1.24064 11.3749 1.63672 11.6553C2.87577 12.5343 4.38505 13.3354 6.10547 14.0537L8.35742 5.38184L8.36035 5.37305C9.28095 2.30063 12.036 0.250061 15.2207 0.25H38.0371ZM7.03125 34.8691C7.03126 37.2523 8.89984 39.1758 11.1768 39.1758C13.4535 39.1755 15.3213 37.2521 15.3213 34.8691V33.3975H7.41016C7.28222 33.3975 7.15607 33.3923 7.03125 33.3848V34.8691ZM46.2246 33.3848C46.1004 33.3922 45.9746 33.3975 45.8477 33.3975H37.9346V34.8691C37.9346 37.2521 39.8024 39.1755 42.0791 39.1758C44.356 39.1758 46.2246 37.2523 46.2246 34.8691V33.3848ZM6.03906 15.916C3.94021 16.351 2.00879 18.5454 2.00879 21.2188V26.2412C2.00879 29.2183 4.43178 31.6414 7.41016 31.6416H45.8477C48.8248 31.6416 51.2471 29.2185 51.2471 26.2412V21.2188C51.2471 18.7454 49.5758 16.6637 46.9131 16.0312C41.1372 18.2591 36.3383 19.5654 28.1289 19.5654C19.7904 19.5654 11.8835 18.2213 6.03906 15.916ZM15.2207 2.00586C12.8161 2.00592 10.7391 3.55197 10.0488 5.85449L7.75293 14.6895C13.2503 16.6619 20.4799 17.8105 28.1289 17.8105C35.5158 17.8105 39.5895 16.7408 44.9688 14.8818V14.0625H45.2188C45.2602 14.0625 45.3017 14.0651 45.3428 14.0664L43.2021 5.82324V5.82227C42.5141 3.54804 40.4378 2.00586 38.0371 2.00586H15.2207Z" fill="#E0E0E0" stroke="#E0E0E0" stroke-width="0.5"/>
<path d="M9.4873 19.7129C11.7034 19.7129 13.5047 21.5148 13.5049 23.7295C13.5049 25.9445 11.7023 27.7471 9.4873 27.7471C7.27254 27.7468 5.4707 25.9443 5.4707 23.7295C5.47093 21.5149 7.27268 19.7131 9.4873 19.7129ZM9.4873 21.4688C8.2407 21.469 7.22679 22.4829 7.22656 23.7295C7.22656 24.9763 8.24056 25.991 9.4873 25.9912C10.7342 25.9912 11.749 24.9764 11.749 23.7295C11.7488 22.4827 10.7341 21.4688 9.4873 21.4688Z" fill="#E0E0E0" stroke="#E0E0E0" stroke-width="0.5"/>
<path d="M44.1572 19.7129C46.3734 19.7129 48.1746 21.5148 48.1748 23.7295C48.1748 25.9445 46.3722 27.7471 44.1572 27.7471C41.9425 27.7468 40.1406 25.9443 40.1406 23.7295C40.1409 21.5149 41.9426 19.7131 44.1572 19.7129ZM44.1572 21.4688C42.9106 21.469 41.8967 22.4829 41.8965 23.7295C41.8965 24.9763 42.9105 25.991 44.1572 25.9912C45.4042 25.9912 46.4189 24.9764 46.4189 23.7295C46.4187 22.4827 45.404 21.4688 44.1572 21.4688Z" fill="#E0E0E0" stroke="#E0E0E0" stroke-width="0.5"/>
<path d="M32.1914 5.80029C32.5338 5.45785 33.0901 5.45795 33.4326 5.80029C33.7751 6.14278 33.7751 6.69902 33.4326 7.0415L24.5479 15.9263C24.3766 16.0958 24.1522 16.1821 23.9277 16.1821C23.7034 16.1821 23.4782 16.0959 23.3076 15.9253C22.9653 15.5828 22.9652 15.0265 23.3076 14.6841L32.1914 5.80029Z" fill="#E0E0E0" stroke="#E0E0E0" stroke-width="0.5"/>
<path d="M27.501 22.2246C27.9856 22.2247 28.3789 22.6179 28.3789 23.1025V26.8691C28.3789 27.3537 27.9856 27.747 27.501 27.7471C27.0163 27.7471 26.623 27.3538 26.623 26.8691V23.1025C26.623 22.6179 27.0163 22.2246 27.501 22.2246Z" fill="#E0E0E0" stroke="#E0E0E0" stroke-width="0.5"/>
<path d="M22.4795 22.2246C22.9641 22.2247 23.3574 22.6179 23.3574 23.1025V26.8691C23.3574 27.3537 22.9641 27.747 22.4795 27.7471C21.9949 27.7471 21.6016 27.3538 21.6016 26.8691V23.1025C21.6016 22.6179 21.9949 22.2246 22.4795 22.2246Z" fill="#E0E0E0" stroke="#E0E0E0" stroke-width="0.5"/>
<path d="M32.5225 22.2246C33.0071 22.2247 33.4004 22.6179 33.4004 23.1025V26.8691C33.4004 27.3537 33.0071 27.747 32.5225 27.7471C32.0378 27.7471 31.6445 27.3538 31.6445 26.8691V23.1025C31.6445 22.6179 32.0378 22.2246 32.5225 22.2246Z" fill="#E0E0E0" stroke="#E0E0E0" stroke-width="0.5"/>
</svg>
