<?xml version="1.0" encoding="UTF-8"?>
<svg id="Layer_2" data-name="Layer 2" xmlns="http://www.w3.org/2000/svg" viewBox="0 0 139.74 127.78">
  <g id="Layer_1-2" data-name="Layer 1">
    <g>
      <path d="M138.21,90.71l-62.41,35.47c-5.72,2.88-12.39-.06-13.38-5.91l-2.68-19.69L5.75,127.78,0,98.21l69.17-34.85.38-.19.27-.14-4.94-25.43-56.59,28.51c-1.59.8-3.44-.02-3.72-1.65L0,37.83,63.94,1.18c5.7-2.87,12.35.08,13.35,5.93l2.69,20.08L133.95,0l5.74,29.57-69.51,34.99v-.02s4.93,25.43,4.93,25.43l59.81-30.08,4.78,28.04c.19,1.1-.43,2.24-1.5,2.78Z"/>
      <line x1="69.73" y1="62.5" x2="70.5" y2="66.15"/>
    </g>
  </g>
</svg>