<svg width="313" height="56" viewBox="0 0 313 56" fill="none" xmlns="http://www.w3.org/2000/svg">
<path d="M25.8693 0L0 15.5255V29.3664L23.9319 15.5255V26.5077L47.0661 13.1281V0L25.8693 11.4158V0Z" fill="#1E1E1E"/>
<path d="M24.3015 27.1663L0.415568 42.1591V56L22.3641 42.6918V53.674L47.4817 39.7618V26.6337L24.3015 38.5821V27.1663Z" fill="#1E1E1E"/>
<path d="M83.3861 32.1268H70.4656V26.9H83.3861C85.8883 26.9 87.9144 26.5005 89.4644 25.7015C91.0145 24.9025 92.1438 23.7927 92.8523 22.3723C93.5831 20.9518 93.9484 19.3316 93.9484 17.5116C93.9484 15.847 93.5831 14.2823 92.8523 12.8174C92.1438 11.3526 91.0145 10.1763 89.4644 9.28849C87.9144 8.3785 85.8883 7.92351 83.3861 7.92351H71.9602V51.1366H65.5498V2.66337H83.3861C87.0397 2.66337 90.1287 3.29591 92.653 4.56101C95.1774 5.82611 97.0928 7.57949 98.3992 9.82116C99.7057 12.0406 100.359 14.5819 100.359 17.445C100.359 20.5523 99.7057 23.2046 98.3992 25.4018C97.0928 27.5991 95.1774 29.2748 92.653 30.4289C90.1287 31.5609 87.0397 32.1268 83.3861 32.1268Z" fill="#1E1E1E"/>
<path d="M113.678 20.7743V51.1366H107.533V15.1146H113.512L113.678 20.7743ZM124.905 14.9148L124.871 20.6411C124.362 20.5301 123.875 20.4635 123.41 20.4413C122.967 20.3969 122.458 20.3747 121.882 20.3747C120.465 20.3747 119.214 20.5967 118.129 21.0406C117.044 21.4845 116.125 22.1059 115.372 22.9049C114.619 23.704 114.021 24.6583 113.578 25.7681C113.158 26.8556 112.881 28.0541 112.748 29.3636L111.021 30.3624C111.021 28.1873 111.231 26.1454 111.652 24.2366C112.095 22.3279 112.77 20.6411 113.678 19.1762C114.586 17.6892 115.737 16.5351 117.132 15.7139C118.55 14.8705 120.232 14.4488 122.181 14.4488C122.624 14.4488 123.133 14.5042 123.709 14.6152C124.285 14.704 124.683 14.8039 124.905 14.9148Z" fill="#1E1E1E"/>
<path d="M144.833 51.8025C142.331 51.8025 140.062 51.3808 138.024 50.5374C136.009 49.6718 134.271 48.4622 132.81 46.9085C131.37 45.3549 130.263 43.5127 129.488 41.382C128.713 39.2513 128.326 36.9209 128.326 34.3907V32.9924C128.326 30.0627 128.758 27.4549 129.621 25.1688C130.485 22.8606 131.658 20.9074 133.142 19.3094C134.625 17.7114 136.308 16.5018 138.191 15.6806C140.073 14.8594 142.021 14.4488 144.036 14.4488C146.605 14.4488 148.819 14.8927 150.679 15.7804C152.561 16.6682 154.1 17.9111 155.296 19.5092C156.492 21.085 157.378 22.9493 157.953 25.1022C158.529 27.2329 158.817 29.5634 158.817 32.0936V34.8568H131.979V29.8297H152.672V29.3636C152.584 27.7656 152.251 26.212 151.676 24.7027C151.122 23.1935 150.236 21.9506 149.019 20.974C147.801 19.9974 146.14 19.5092 144.036 19.5092C142.641 19.5092 141.357 19.8088 140.183 20.408C139.01 20.9851 138.002 21.8507 137.161 23.0048C136.319 24.1589 135.666 25.5683 135.201 27.2329C134.736 28.8975 134.504 30.8174 134.504 32.9924V34.3907C134.504 36.0997 134.736 37.7088 135.201 39.2181C135.688 40.7051 136.386 42.0146 137.294 43.1465C138.224 44.2785 139.342 45.1662 140.648 45.8099C141.977 46.4535 143.483 46.7754 145.166 46.7754C147.336 46.7754 149.174 46.3315 150.679 45.4437C152.185 44.5559 153.503 43.3685 154.632 41.8814L158.352 44.8444C157.577 46.0207 156.592 47.1416 155.396 48.2069C154.2 49.2723 152.728 50.1379 150.978 50.8037C149.251 51.4695 147.203 51.8025 144.833 51.8025Z" fill="#1E1E1E"/>
<path d="M186.917 41.5818C186.917 40.694 186.717 39.8728 186.319 39.1182C185.942 38.3414 185.156 37.6422 183.961 37.0208C182.787 36.3771 181.015 35.8223 178.646 35.3562C176.653 34.9345 174.849 34.4351 173.232 33.858C171.638 33.281 170.276 32.5818 169.147 31.7606C168.04 30.9394 167.187 29.974 166.589 28.8642C165.991 27.7545 165.692 26.4561 165.692 24.969C165.692 23.5486 166.002 22.2058 166.622 20.9407C167.265 19.6756 168.161 18.5548 169.313 17.5782C170.486 16.6016 171.892 15.8359 173.531 15.2811C175.17 14.7262 176.996 14.4488 179.012 14.4488C181.89 14.4488 184.348 14.9592 186.385 15.9802C188.422 17.0011 189.983 18.3661 191.068 20.0751C192.154 21.7619 192.696 23.6374 192.696 25.7015H186.551C186.551 24.7027 186.252 23.7372 185.654 22.8051C185.079 21.8507 184.226 21.0628 183.097 20.4413C181.99 19.8199 180.628 19.5092 179.012 19.5092C177.306 19.5092 175.923 19.7755 174.86 20.3082C173.819 20.8186 173.055 21.4734 172.568 22.2724C172.103 23.0714 171.87 23.9148 171.87 24.8026C171.87 25.4684 171.981 26.0677 172.202 26.6004C172.446 27.1108 172.867 27.588 173.465 28.0319C174.063 28.4536 174.904 28.8531 175.989 29.2304C177.074 29.6077 178.458 29.9851 180.141 30.3624C183.086 31.0282 185.511 31.8272 187.415 32.7594C189.319 33.6916 190.736 34.8346 191.666 36.1885C192.596 37.5424 193.061 39.1848 193.061 41.1157C193.061 42.6915 192.729 44.1342 192.065 45.4437C191.423 46.7532 190.482 47.8851 189.242 48.8395C188.024 49.7716 186.562 50.5041 184.857 51.0367C183.174 51.5472 181.281 51.8025 179.178 51.8025C176.011 51.8025 173.332 51.2365 171.14 50.1046C168.947 48.9726 167.287 47.5078 166.157 45.71C165.028 43.9122 164.463 42.0146 164.463 40.0171H170.641C170.73 41.7039 171.217 43.0466 172.103 44.0454C172.989 45.022 174.074 45.7211 175.358 46.1428C176.642 46.5423 177.915 46.7421 179.178 46.7421C180.86 46.7421 182.267 46.5201 183.396 46.0762C184.547 45.6323 185.422 45.022 186.02 44.2452C186.618 43.4683 186.917 42.5806 186.917 41.5818Z" fill="#1E1E1E"/>
<path d="M215.515 46.7421C216.976 46.7421 218.327 46.4424 219.567 45.8432C220.807 45.2439 221.825 44.4227 222.623 43.3796C223.42 42.3142 223.874 41.1046 223.984 39.7507H229.83C229.719 41.8814 229 43.8678 227.671 45.71C226.365 47.53 224.649 49.0059 222.523 50.1379C220.397 51.2476 218.061 51.8025 215.515 51.8025C212.813 51.8025 210.455 51.3253 208.44 50.3709C206.447 49.4165 204.786 48.107 203.458 46.4424C202.151 44.7778 201.166 42.8691 200.501 40.7162C199.859 38.5411 199.538 36.244 199.538 33.8247V32.4265C199.538 30.0072 199.859 27.7212 200.501 25.5683C201.166 23.3932 202.151 21.4734 203.458 19.8088C204.786 18.1442 206.447 16.8347 208.44 15.8803C210.455 14.9259 212.813 14.4488 215.515 14.4488C218.327 14.4488 220.785 15.0258 222.888 16.1799C224.992 17.3119 226.642 18.8655 227.837 20.8408C229.055 22.794 229.719 25.0134 229.83 27.4992H223.984C223.874 26.0122 223.453 24.6694 222.722 23.4709C222.014 22.2724 221.039 21.318 219.799 20.6078C218.581 19.8754 217.153 19.5092 215.515 19.5092C213.632 19.5092 212.049 19.8865 210.765 20.6411C209.503 21.3735 208.495 22.3723 207.742 23.6374C207.012 24.8803 206.48 26.2674 206.148 27.7989C205.838 29.3081 205.683 30.8506 205.683 32.4265V33.8247C205.683 35.4006 205.838 36.9542 206.148 38.4856C206.458 40.0171 206.978 41.4042 207.709 42.6471C208.462 43.89 209.469 44.8888 210.732 45.6434C212.016 46.3758 213.61 46.7421 215.515 46.7421Z" fill="#1E1E1E"/>
<path d="M235.111 33.5251V32.7594C235.111 30.1626 235.488 27.7545 236.241 25.535C236.993 23.2933 238.078 21.3513 239.496 19.7089C240.913 18.0443 242.629 16.757 244.644 15.847C246.659 14.9148 248.918 14.4488 251.42 14.4488C253.944 14.4488 256.214 14.9148 258.229 15.847C260.266 16.757 261.993 18.0443 263.41 19.7089C264.85 21.3513 265.946 23.2933 266.699 25.535C267.451 27.7545 267.828 30.1626 267.828 32.7594V33.5251C267.828 36.1219 267.451 38.53 266.699 40.7495C265.946 42.969 264.85 44.911 263.41 46.5756C261.993 48.218 260.277 49.5053 258.262 50.4375C256.269 51.3475 254.011 51.8025 251.486 51.8025C248.962 51.8025 246.692 51.3475 244.677 50.4375C242.662 49.5053 240.935 48.218 239.496 46.5756C238.078 44.911 236.993 42.969 236.241 40.7495C235.488 38.53 235.111 36.1219 235.111 33.5251ZM241.256 32.7594V33.5251C241.256 35.3229 241.466 37.0208 241.887 38.6188C242.308 40.1946 242.939 41.5929 243.78 42.8136C244.644 44.0343 245.718 44.9998 247.002 45.71C248.286 46.398 249.781 46.7421 251.486 46.7421C253.169 46.7421 254.642 46.398 255.904 45.71C257.188 44.9998 258.251 44.0343 259.092 42.8136C259.934 41.5929 260.565 40.1946 260.986 38.6188C261.428 37.0208 261.65 35.3229 261.65 33.5251V32.7594C261.65 30.9838 261.428 29.3081 260.986 27.7323C260.565 26.1343 259.923 24.7249 259.059 23.5042C258.218 22.2613 257.155 21.2847 255.871 20.5745C254.608 19.8643 253.125 19.5092 251.42 19.5092C249.737 19.5092 248.253 19.8643 246.969 20.5745C245.707 21.2847 244.644 22.2613 243.78 23.5042C242.939 24.7249 242.308 26.1343 241.887 27.7323C241.466 29.3081 241.256 30.9838 241.256 32.7594Z" fill="#1E1E1E"/>
<path d="M290.58 15.1146V19.8421H271.149V15.1146H290.58ZM277.726 6.35878H283.871V42.2143C283.871 43.4351 284.059 44.3561 284.435 44.9776C284.812 45.599 285.299 46.0096 285.897 46.2094C286.495 46.4091 287.137 46.509 287.823 46.509C288.332 46.509 288.864 46.4646 289.417 46.3758C289.993 46.2649 290.425 46.1761 290.713 46.1095L290.746 51.1366C290.259 51.292 289.617 51.4362 288.82 51.5694C288.045 51.7248 287.104 51.8025 285.996 51.8025C284.491 51.8025 283.107 51.5028 281.845 50.9036C280.582 50.3043 279.575 49.3055 278.822 47.9073C278.091 46.4868 277.726 44.5781 277.726 42.181V6.35878Z" fill="#1E1E1E"/>
<path d="M312.834 15.1146V19.8421H293.403V15.1146H312.834ZM299.98 6.35878H306.125V42.2143C306.125 43.4351 306.313 44.3561 306.689 44.9776C307.066 45.599 307.553 46.0096 308.151 46.2094C308.749 46.4091 309.391 46.509 310.077 46.509C310.586 46.509 311.118 46.4646 311.671 46.3758C312.247 46.2649 312.679 46.1761 312.967 46.1095L313 51.1366C312.513 51.292 311.871 51.4362 311.074 51.5694C310.299 51.7248 309.357 51.8025 308.25 51.8025C306.745 51.8025 305.361 51.5028 304.098 50.9036C302.836 50.3043 301.829 49.3055 301.076 47.9073C300.345 46.4868 299.98 44.5781 299.98 42.181V6.35878Z" fill="#1E1E1E"/>
</svg>
