<svg width="58" height="52" viewBox="0 0 58 52" fill="none" xmlns="http://www.w3.org/2000/svg">
<g filter="url(#filter0_d_410_79)">
<path d="M52.9178 30.8242H30.998L6.89127 16.9062L5.40005 19.4891C4.57651 20.9156 5.06523 22.7395 6.49173 23.5631L28.0155 35.9899C28.9222 36.5135 29.9509 36.7891 30.9979 36.7891H49.9353C51.5824 36.7891 52.9178 35.4538 52.9178 33.8066V30.8242Z" stroke="#E0E0E0" stroke-width="2" stroke-miterlimit="10" stroke-linecap="round" stroke-linejoin="round"/>
<path d="M32.734 13.4804L28.8594 15.7173" stroke="#E0E0E0" stroke-width="2" stroke-miterlimit="10" stroke-linecap="round" stroke-linejoin="round"/>
<path d="M35.0951 19.0045L31.8418 20.8828" stroke="#E0E0E0" stroke-width="2" stroke-miterlimit="10" stroke-linecap="round" stroke-linejoin="round"/>
<path d="M38.467 20.8828C36.8616 20.8828 35.4138 19.9176 34.7963 18.4357L30.8452 8.95304C25.9037 9.5021 21.4528 5.94138 20.9037 0.999881L13.4336 7.11178C12.3182 8.02441 11.3772 9.13169 10.6566 10.38L6.88867 16.9062L30.9954 30.8242H52.9152C52.9152 25.3337 48.4643 20.8828 42.9737 20.8828H38.467Z" stroke="#E0E0E0" stroke-width="2" stroke-miterlimit="10" stroke-linecap="round" stroke-linejoin="round"/>
<path d="M14.6415 21.3799C17.0964 17.1278 15.6616 11.7016 11.4453 9.20857" stroke="#E0E0E0" stroke-width="2" stroke-miterlimit="10" stroke-linecap="round" stroke-linejoin="round"/>
<path d="M42.9746 30.8242V20.8828" stroke="#E0E0E0" stroke-width="2" stroke-miterlimit="10" stroke-linecap="round" stroke-linejoin="round"/>
<path d="M5 42.7539H11.959" stroke="#E0E0E0" stroke-width="2" stroke-miterlimit="10" stroke-linecap="round" stroke-linejoin="round"/>
<path d="M19.9121 42.7539H42.9763" stroke="#E0E0E0" stroke-width="2" stroke-miterlimit="10" stroke-linecap="round" stroke-linejoin="round"/>
<path d="M5 36.7891H15.9356" stroke="#E0E0E0" stroke-width="2" stroke-miterlimit="10" stroke-linecap="round" stroke-linejoin="round"/>
<path d="M48.9414 42.7539H52.918" stroke="#E0E0E0" stroke-width="2" stroke-miterlimit="10" stroke-linecap="round" stroke-linejoin="round"/>
</g>
<defs>
<filter id="filter0_d_410_79" x="0" y="0" width="57.918" height="51.7539" filterUnits="userSpaceOnUse" color-interpolation-filters="sRGB">
<feFlood flood-opacity="0" result="BackgroundImageFix"/>
<feColorMatrix in="SourceAlpha" type="matrix" values="0 0 0 0 0 0 0 0 0 0 0 0 0 0 0 0 0 0 127 0" result="hardAlpha"/>
<feOffset dy="4"/>
<feGaussianBlur stdDeviation="2"/>
<feComposite in2="hardAlpha" operator="out"/>
<feColorMatrix type="matrix" values="0 0 0 0 0 0 0 0 0 0 0 0 0 0 0 0 0 0 0.25 0"/>
<feBlend mode="normal" in2="BackgroundImageFix" result="effect1_dropShadow_410_79"/>
<feBlend mode="normal" in="SourceGraphic" in2="effect1_dropShadow_410_79" result="shape"/>
</filter>
</defs>
</svg>
