<svg width="166" height="29" viewBox="0 0 166 29" fill="none" xmlns="http://www.w3.org/2000/svg">
<path d="M13.7198 0L0 8.03997V15.2076L12.6923 8.03997V13.7272L24.9616 6.7985V0L13.7198 5.91174V0Z" fill="#1E1E1E"/>
<path d="M12.8883 14.0683L0.220397 21.8324V29L11.8609 22.1082V27.7955L25.182 20.5909V13.7924L12.8883 19.98V14.0683Z" fill="#1E1E1E"/>
<path d="M44.2239 16.6371H37.3715V13.9304H44.2239C45.551 13.9304 46.6255 13.7235 47.4476 13.3097C48.2696 12.8959 48.8686 12.3212 49.2444 11.5856C49.6319 10.85 49.8257 10.011 49.8257 9.06852C49.8257 8.20649 49.6319 7.39619 49.2444 6.63761C48.8686 5.87902 48.2696 5.26986 47.4476 4.81011C46.6255 4.33887 45.551 4.10325 44.2239 4.10325H38.1642V26.4815H34.7644V1.37924H44.2239C46.1617 1.37924 47.7999 1.70681 49.1387 2.36195C50.4775 3.01709 51.4933 3.9251 52.1862 5.08596C52.879 6.23533 53.2255 7.55135 53.2255 9.03404C53.2255 10.6432 52.879 12.0167 52.1862 13.1545C51.4933 14.2924 50.4775 15.1602 49.1387 15.7578C47.7999 16.344 46.1617 16.6371 44.2239 16.6371Z" fill="#1E1E1E"/>
<path d="M60.2893 10.7581V26.4815H57.0304V7.8272H60.2012L60.2893 10.7581ZM66.2433 7.72376L66.2257 10.6891C65.9556 10.6317 65.6973 10.5972 65.4506 10.5857C65.2158 10.5627 64.9457 10.5512 64.6403 10.5512C63.8887 10.5512 63.2252 10.6661 62.6498 10.896C62.0743 11.1259 61.587 11.4477 61.1877 11.8615C60.7884 12.2753 60.4713 12.7695 60.2365 13.3442C60.0133 13.9074 59.8665 14.528 59.7961 15.2062L58.8801 15.7234C58.8801 14.597 58.9916 13.5396 59.2148 12.5511C59.4496 11.5627 59.8078 10.6891 60.2893 9.93055C60.7708 9.16047 61.3815 8.5628 62.1213 8.13753C62.8729 7.70077 63.7654 7.48239 64.7989 7.48239C65.0337 7.48239 65.3038 7.51113 65.6092 7.56859C65.9145 7.61457 66.1259 7.66629 66.2433 7.72376Z" fill="#1E1E1E"/>
<path d="M76.8127 26.8263C75.4856 26.8263 74.2819 26.6079 73.2015 26.1711C72.1328 25.7229 71.2109 25.0965 70.4358 24.2919C69.6725 23.4874 69.0853 22.5334 68.6743 21.43C68.2633 20.3266 68.0577 19.1198 68.0577 17.8095V17.0854C68.0577 15.5682 68.2867 14.2177 68.7447 13.0338C69.2027 11.8385 69.8252 10.8271 70.612 9.99951C71.3988 9.17196 72.2913 8.54556 73.2895 8.12029C74.2878 7.69502 75.3212 7.48239 76.3899 7.48239C77.7521 7.48239 78.9265 7.71227 79.913 8.17201C80.9112 8.63176 81.7274 9.27541 82.3615 10.103C82.9957 10.919 83.4655 11.8845 83.7708 12.9994C84.0761 14.1028 84.2288 15.3096 84.2288 16.6199V18.0508H69.9954V15.4475H80.9699V15.2062C80.9229 14.3786 80.7468 13.574 80.4414 12.7925C80.1479 12.0109 79.6781 11.3673 79.0322 10.8615C78.3863 10.3558 77.5055 10.103 76.3899 10.103C75.65 10.103 74.9689 10.2581 74.3465 10.5684C73.7241 10.8673 73.1897 11.3155 72.7435 11.9132C72.2972 12.5109 71.9508 13.2407 71.7041 14.1028C71.4575 14.9648 71.3342 15.959 71.3342 17.0854V17.8095C71.3342 18.6945 71.4575 19.5278 71.7041 20.3093C71.9625 21.0794 72.3324 21.7576 72.8139 22.3437C73.3072 22.9299 73.9002 23.3897 74.5931 23.723C75.2977 24.0563 76.0963 24.223 76.9888 24.223C78.1397 24.223 79.1144 23.9931 79.913 23.5333C80.7116 23.0736 81.4103 22.4587 82.0092 21.6886L83.9822 23.223C83.5711 23.8322 83.0485 24.4126 82.4144 24.9643C81.7802 25.516 80.9993 25.9642 80.0715 26.3091C79.1555 26.6539 78.0692 26.8263 76.8127 26.8263Z" fill="#1E1E1E"/>
<path d="M99.1315 21.5334C99.1315 21.0737 99.0258 20.6484 98.8144 20.2576C98.6148 19.8554 98.1979 19.4933 97.5637 19.1715C96.9413 18.8382 96.0018 18.5508 94.7452 18.3094C93.6883 18.0911 92.7312 17.8325 91.8739 17.5336C91.0284 17.2348 90.3061 16.8727 89.7072 16.4475C89.12 16.0222 88.6679 15.5222 88.3508 14.9475C88.0337 14.3729 87.8752 13.7005 87.8752 12.9304C87.8752 12.1948 88.0396 11.4994 88.3684 10.8443C88.709 10.1892 89.1846 9.60872 89.7953 9.103C90.4177 8.59728 91.1634 8.20075 92.0325 7.91341C92.9015 7.62606 93.8703 7.48239 94.939 7.48239C96.4657 7.48239 97.7692 7.74675 98.8497 8.27546C99.9301 8.80417 100.758 9.51103 101.333 10.396C101.909 11.2696 102.197 12.2408 102.197 13.3097H98.9377C98.9377 12.7925 98.7792 12.2925 98.4621 11.8098C98.1568 11.3155 97.7047 10.9075 97.1057 10.5857C96.5185 10.2639 95.7963 10.103 94.939 10.103C94.0348 10.103 93.3008 10.2409 92.7371 10.5167C92.1851 10.7811 91.78 11.1201 91.5216 11.5339C91.275 11.9477 91.1517 12.3845 91.1517 12.8442C91.1517 13.189 91.2104 13.4993 91.3278 13.7752C91.457 14.0395 91.6801 14.2867 91.9972 14.5165C92.3143 14.7349 92.7606 14.9418 93.336 15.1372C93.9114 15.3326 94.6454 15.528 95.5379 15.7234C97.0999 16.0682 98.3858 16.482 99.3957 16.9647C100.406 17.4474 101.157 18.0393 101.651 18.7405C102.144 19.4416 102.39 20.2921 102.39 21.2921C102.39 22.1081 102.214 22.8552 101.862 23.5333C101.521 24.2115 101.022 24.7976 100.365 25.2919C99.7187 25.7746 98.9436 26.1539 98.0393 26.4297C97.1468 26.6941 96.1427 26.8263 95.0271 26.8263C93.3477 26.8263 91.9268 26.5332 90.7641 25.947C89.6015 25.3608 88.7207 24.6022 88.1218 23.6713C87.5229 22.7403 87.2234 21.7576 87.2234 20.7231H90.4999C90.5469 21.5966 90.8052 22.292 91.275 22.8092C91.7447 23.3149 92.3202 23.677 93.0013 23.8954C93.6824 24.1023 94.3577 24.2057 95.0271 24.2057C95.9196 24.2057 96.6653 24.0908 97.2643 23.8609C97.8749 23.631 98.3388 23.3149 98.6559 22.9127C98.973 22.5104 99.1315 22.0506 99.1315 21.5334Z" fill="#1E1E1E"/>
<path d="M114.298 24.2057C115.074 24.2057 115.79 24.0505 116.448 23.7402C117.105 23.4299 117.645 23.0046 118.068 22.4644C118.491 21.9127 118.732 21.2863 118.79 20.5852H121.891C121.832 21.6886 121.45 22.7173 120.746 23.6713C120.053 24.6137 119.143 25.3781 118.015 25.9642C116.888 26.5389 115.649 26.8263 114.298 26.8263C112.866 26.8263 111.615 26.5792 110.546 26.0849C109.489 25.5907 108.609 24.9126 107.904 24.0505C107.211 23.1885 106.689 22.2001 106.336 21.0852C105.996 19.9588 105.825 18.7692 105.825 17.5164V16.7923C105.825 15.5395 105.996 14.3556 106.336 13.2407C106.689 12.1143 107.211 11.1201 107.904 10.2581C108.609 9.39609 109.489 8.71796 110.546 8.22373C111.615 7.72951 112.866 7.48239 114.298 7.48239C115.79 7.48239 117.093 7.78123 118.209 8.3789C119.325 8.96508 120.2 9.76964 120.834 10.7926C121.48 11.804 121.832 12.9534 121.891 14.2407H118.79C118.732 13.4706 118.509 12.7752 118.121 12.1546C117.745 11.5339 117.229 11.0397 116.571 10.6719C115.925 10.2926 115.168 10.103 114.298 10.103C113.3 10.103 112.461 10.2983 111.779 10.6891C111.11 11.0684 110.576 11.5856 110.176 12.2408C109.789 12.8844 109.507 13.6028 109.331 14.3958C109.166 15.1774 109.084 15.9762 109.084 16.7923V17.5164C109.084 18.3324 109.166 19.137 109.331 19.9301C109.495 20.7231 109.771 21.4415 110.159 22.0851C110.558 22.7288 111.092 23.246 111.762 23.6368C112.443 24.0161 113.289 24.2057 114.298 24.2057Z" fill="#1E1E1E"/>
<path d="M124.692 17.3612V16.9647C124.692 15.6199 124.891 14.3729 125.291 13.2235C125.69 12.0626 126.265 11.0569 127.017 10.2064C127.768 9.34437 128.679 8.67774 129.747 8.20649C130.816 7.72376 132.014 7.48239 133.341 7.48239C134.68 7.48239 135.883 7.72376 136.952 8.20649C138.032 8.67774 138.948 9.34437 139.7 10.2064C140.463 11.0569 141.045 12.0626 141.444 13.2235C141.843 14.3729 142.043 15.6199 142.043 16.9647V17.3612C142.043 18.706 141.843 19.953 141.444 21.1024C141.045 22.2518 140.463 23.2575 139.7 24.1195C138.948 24.97 138.038 25.6367 136.97 26.1194C135.913 26.5907 134.715 26.8263 133.376 26.8263C132.037 26.8263 130.834 26.5907 129.765 26.1194C128.696 25.6367 127.78 24.97 127.017 24.1195C126.265 23.2575 125.69 22.2518 125.291 21.1024C124.891 19.953 124.692 18.706 124.692 17.3612ZM127.95 16.9647V17.3612C127.95 18.2922 128.062 19.1715 128.285 19.999C128.508 20.8151 128.843 21.5392 129.289 22.1713C129.747 22.8035 130.317 23.3035 130.998 23.6713C131.679 24.0276 132.472 24.2057 133.376 24.2057C134.269 24.2057 135.05 24.0276 135.719 23.6713C136.4 23.3035 136.964 22.8035 137.41 22.1713C137.856 21.5392 138.191 20.8151 138.414 19.999C138.649 19.1715 138.766 18.2922 138.766 17.3612V16.9647C138.766 16.0452 138.649 15.1774 138.414 14.3614C138.191 13.5338 137.85 12.804 137.392 12.1718C136.946 11.5282 136.382 11.0224 135.701 10.6546C135.032 10.2869 134.245 10.103 133.341 10.103C132.448 10.103 131.661 10.2869 130.98 10.6546C130.311 11.0224 129.747 11.5282 129.289 12.1718C128.843 12.804 128.508 13.5338 128.285 14.3614C128.062 15.1774 127.95 16.0452 127.95 16.9647Z" fill="#1E1E1E"/>
<path d="M154.11 7.8272V10.2754H143.804V7.8272H154.11ZM147.292 3.29294H150.551V21.861C150.551 22.4932 150.651 22.9701 150.851 23.292C151.05 23.6138 151.309 23.8264 151.626 23.9299C151.943 24.0333 152.283 24.085 152.647 24.085C152.918 24.085 153.199 24.062 153.493 24.0161C153.798 23.9586 154.027 23.9126 154.18 23.8781L154.198 26.4815C153.939 26.5619 153.599 26.6366 153.176 26.7056C152.765 26.786 152.266 26.8263 151.679 26.8263C150.88 26.8263 150.146 26.6711 149.477 26.3608C148.807 26.0504 148.273 25.5332 147.874 24.8091C147.486 24.0735 147.292 23.0851 147.292 21.8438V3.29294Z" fill="#1E1E1E"/>
<path d="M165.912 7.8272V10.2754H155.607V7.8272H165.912ZM159.095 3.29294H162.354V21.861C162.354 22.4932 162.453 22.9701 162.653 23.292C162.853 23.6138 163.111 23.8264 163.428 23.9299C163.745 24.0333 164.086 24.085 164.45 24.085C164.72 24.085 165.002 24.062 165.295 24.0161C165.601 23.9586 165.83 23.9126 165.982 23.8781L166 26.4815C165.742 26.5619 165.401 26.6366 164.978 26.7056C164.567 26.786 164.068 26.8263 163.481 26.8263C162.682 26.8263 161.948 26.6711 161.279 26.3608C160.61 26.0504 160.075 25.5332 159.676 24.8091C159.288 24.0735 159.095 23.0851 159.095 21.8438V3.29294Z" fill="#1E1E1E"/>
</svg>
