<svg width="50" height="44" viewBox="0 0 50 44" fill="none" xmlns="http://www.w3.org/2000/svg">
<path d="M48.9178 30.8242H26.998L2.89127 16.9062L1.40005 19.4891C0.576505 20.9156 1.06523 22.7395 2.49173 23.5631L24.0155 35.9899C24.9222 36.5135 25.9509 36.7891 26.9979 36.7891H45.9353C47.5824 36.7891 48.9178 35.4538 48.9178 33.8066V30.8242Z" stroke="#E0E0E0" stroke-width="2" stroke-miterlimit="10" stroke-linecap="round" stroke-linejoin="round"/>
<path d="M28.734 13.4804L24.8594 15.7173" stroke="#E0E0E0" stroke-width="2" stroke-miterlimit="10" stroke-linecap="round" stroke-linejoin="round"/>
<path d="M31.0951 19.0045L27.8418 20.8828" stroke="#E0E0E0" stroke-width="2" stroke-miterlimit="10" stroke-linecap="round" stroke-linejoin="round"/>
<path d="M34.467 20.8828C32.8616 20.8828 31.4138 19.9176 30.7963 18.4357L26.8452 8.95304C21.9037 9.5021 17.4528 5.94138 16.9037 0.999881L9.43362 7.11178C8.31819 8.02441 7.37723 9.13169 6.65658 10.38L2.88867 16.9062L26.9954 30.8242H48.9152C48.9152 25.3337 44.4643 20.8828 38.9737 20.8828H34.467Z" stroke="#E0E0E0" stroke-width="2" stroke-miterlimit="10" stroke-linecap="round" stroke-linejoin="round"/>
<path d="M10.6415 21.3799C13.0964 17.1278 11.6616 11.7016 7.44531 9.20857" stroke="#E0E0E0" stroke-width="2" stroke-miterlimit="10" stroke-linecap="round" stroke-linejoin="round"/>
<path d="M38.9746 30.8242V20.8828" stroke="#E0E0E0" stroke-width="2" stroke-miterlimit="10" stroke-linecap="round" stroke-linejoin="round"/>
<path d="M1 42.7539H7.95901" stroke="#E0E0E0" stroke-width="2" stroke-miterlimit="10" stroke-linecap="round" stroke-linejoin="round"/>
<path d="M15.9121 42.7539H38.9763" stroke="#E0E0E0" stroke-width="2" stroke-miterlimit="10" stroke-linecap="round" stroke-linejoin="round"/>
<path d="M1 36.7891H11.9356" stroke="#E0E0E0" stroke-width="2" stroke-miterlimit="10" stroke-linecap="round" stroke-linejoin="round"/>
<path d="M44.9414 42.7539H48.918" stroke="#E0E0E0" stroke-width="2" stroke-miterlimit="10" stroke-linecap="round" stroke-linejoin="round"/>
</svg>
