<svg width="245" height="821" viewBox="0 0 245 821" fill="none" xmlns="http://www.w3.org/2000/svg">
<path d="M-98.9899 4.53173L-499.569 244.381C-501.077 245.284 -502 246.913 -502 248.671V456.342C-502 460.191 -497.834 462.596 -494.501 460.673L-129.668 250.164C-126.335 248.241 -122.169 250.646 -122.169 254.495V411.077C-122.169 414.925 -118.004 417.331 -114.671 415.408L242.499 209.32C244.047 208.427 245 206.776 245 204.989V8.3626C245 4.58119 240.964 2.16834 237.633 3.95813L-84.0547 176.804C-87.3858 178.594 -91.4213 176.181 -91.4213 172.4V8.82155C-91.4213 4.93711 -95.6572 2.53625 -98.9899 4.53173Z" fill="#1E1E1E"/>
<path d="M-91.4213 356L-502 601.837V821L-122.169 601.837V775.734L245 563.877V356L-91.4213 536.763V356Z" fill="#1E1E1E"/>
</svg>
