<svg width="17" height="17" viewBox="0 0 17 17" fill="none" xmlns="http://www.w3.org/2000/svg">
<path d="M11.5885 0H4.74483C1.77217 0 0 1.77217 0 4.74483V11.5803C0 14.5612 1.77217 16.3333 4.74483 16.3333H11.5803C14.553 16.3333 16.3252 14.5612 16.3252 11.5885V4.74483C16.3333 1.77217 14.5612 0 11.5885 0ZM8.16667 11.3353C6.419 11.3353 4.998 9.91433 4.998 8.16667C4.998 6.419 6.419 4.998 8.16667 4.998C9.91433 4.998 11.3353 6.419 11.3353 8.16667C11.3353 9.91433 9.91433 11.3353 8.16667 11.3353ZM13.0013 3.98533C12.9605 4.08333 12.9033 4.17317 12.8298 4.25483C12.7482 4.32833 12.6583 4.3855 12.5603 4.42633C12.4623 4.46717 12.3562 4.49167 12.25 4.49167C12.0295 4.49167 11.8253 4.41 11.6702 4.25483C11.5967 4.17317 11.5395 4.08333 11.4987 3.98533C11.4578 3.88733 11.4333 3.78117 11.4333 3.675C11.4333 3.56883 11.4578 3.46267 11.4987 3.36467C11.5395 3.2585 11.5967 3.17683 11.6702 3.09517C11.858 2.90733 12.1438 2.8175 12.4052 2.87467C12.4623 2.88283 12.5113 2.89917 12.5603 2.92367C12.6093 2.94 12.6583 2.9645 12.7073 2.99717C12.7482 3.02167 12.789 3.0625 12.8298 3.09517C12.9033 3.17683 12.9605 3.2585 13.0013 3.36467C13.0422 3.46267 13.0667 3.56883 13.0667 3.675C13.0667 3.78117 13.0422 3.88733 13.0013 3.98533Z" fill="white"/>
</svg>
