<svg width="20" height="16" viewBox="0 0 20 16" fill="none" xmlns="http://www.w3.org/2000/svg">
<path fill-rule="evenodd" clip-rule="evenodd" d="M6.1642 15.6798C13.5603 15.6798 17.6057 9.64649 17.6057 4.41506C17.6057 4.24332 17.6057 4.07287 17.5939 3.90305C18.3809 3.34343 19.06 2.6486 19.6 1.85357C18.867 2.1739 18.0879 2.38398 17.2911 2.4766C18.13 1.98163 18.7582 1.204 19.059 0.28643C18.2692 0.747628 17.4058 1.07312 16.5052 1.24777C14.9822 -0.346173 12.4352 -0.4234 10.8153 1.07598C9.77158 2.04276 9.32764 3.48422 9.65202 4.85913C6.419 4.69897 3.40648 3.19575 1.36416 0.722836C0.29694 2.53193 0.8428 4.8454 2.60974 6.00709C1.9698 5.98875 1.34358 5.81912 0.784 5.5123V5.56254C0.78498 7.44691 2.13444 9.06944 4.01016 9.44283C3.41824 9.60203 2.79692 9.62512 2.1952 9.5103C2.72146 11.1235 4.23164 12.2285 5.95154 12.2603C4.5276 13.3622 2.7685 13.9605 0.95746 13.9586C0.63798 13.9576 0.3185 13.9393 0 13.9016C1.83946 15.0633 3.9788 15.6798 6.1642 15.6769" fill="white"/>
</svg>
