<svg width="19" height="17" viewBox="0 0 19 17" fill="none" xmlns="http://www.w3.org/2000/svg">
<path fill-rule="evenodd" clip-rule="evenodd" d="M18.2 16.5455H14.1775V10.7291C14.1775 9.20663 13.5484 8.16731 12.1647 8.16731C11.1064 8.16731 10.5179 8.86867 10.2439 9.5446C10.1412 9.78722 10.1572 10.1252 10.1572 10.4631V16.5455H6.17226C6.17226 16.5455 6.22362 6.24229 6.17226 5.30574H10.1572V7.06973C10.3927 6.29844 11.6661 5.19767 13.6981 5.19767C16.2193 5.19767 18.2 6.8144 18.2 10.2958V16.5455ZM2.14231 3.89984H2.11663C0.832528 3.89984 0 3.04062 0 1.95151C0 0.8412 0.857137 0 2.16692 0C3.47563 0 4.28034 0.839092 4.30602 1.94834C4.30602 3.03745 3.47563 3.89984 2.14231 3.89984ZM0.459055 5.30574H4.0064V16.5455H0.459055V5.30574Z" fill="white"/>
</svg>
